<svg width="64" height="64" viewBox="0 0 64 64" fill="none" xmlns="http://www.w3.org/2000/svg" role="img" aria-labelledby="title desc">
  <title id="title">TechPulse Aurora Ribbon logo</title>
  <desc id="desc">A premium luminous ribbon mark with a futuristic continuous pulse loop.</desc>
  <defs>
    <linearGradient id="auroraStroke" x1="12" y1="48" x2="55" y2="15" gradientUnits="userSpaceOnUse">
      <stop offset="0" stop-color="#10F2FF"/>
      <stop offset="0.24" stop-color="#1769FF"/>
      <stop offset="0.48" stop-color="#7C3AED"/>
      <stop offset="0.72" stop-color="#FF2E88"/>
      <stop offset="1" stop-color="#FFE45C"/>
    </linearGradient>
    <linearGradient id="ribbonHighlight" x1="18" y1="19" x2="47" y2="43" gradientUnits="userSpaceOnUse">
      <stop offset="0" stop-color="#FFFFFF" stop-opacity="0.88"/>
      <stop offset="0.42" stop-color="#D8FEFF" stop-opacity="0.52"/>
      <stop offset="1" stop-color="#FFFFFF" stop-opacity="0"/>
    </linearGradient>
    <filter id="softGlow" x="-20%" y="-20%" width="140%" height="140%">
      <feGaussianBlur stdDeviation="2.8" result="blur"/>
      <feColorMatrix in="blur" type="matrix" values="0 0 0 0 0.1 0 0 0 0 0.38 0 0 0 0 1 0 0 0 0.84 0" result="glow"/>
      <feMerge>
        <feMergeNode in="glow"/>
        <feMergeNode in="SourceGraphic"/>
      </feMerge>
    </filter>
  </defs>
  <rect x="5" y="5" width="54" height="54" rx="16" fill="#030712"/>
  <path d="M17.4 42.5C10.9 33.2 17.8 20.4 29.7 22.1C41.6 23.8 42.4 39.5 30.4 41.2C21.7 42.4 19.8 31.4 27.8 28.4C39.5 24 55 28.7 51.2 40.7C47.6 52.4 29.9 49.2 31.3 36.5C32.7 24.1 46.1 16.8 53.2 26.9" stroke="url(#auroraStroke)" stroke-width="11" stroke-linecap="round" stroke-linejoin="round" opacity="0.34" filter="url(#softGlow)"/>
  <path d="M17.4 42.5C10.9 33.2 17.8 20.4 29.7 22.1C41.6 23.8 42.4 39.5 30.4 41.2C21.7 42.4 19.8 31.4 27.8 28.4C39.5 24 55 28.7 51.2 40.7C47.6 52.4 29.9 49.2 31.3 36.5C32.7 24.1 46.1 16.8 53.2 26.9" stroke="url(#auroraStroke)" stroke-width="7.4" stroke-linecap="round" stroke-linejoin="round"/>
  <path d="M19.7 37.4C17.5 29.4 23.1 24.9 29.8 26.1C36.7 27.4 36.8 35.9 30.3 36.9" stroke="url(#ribbonHighlight)" stroke-width="2.4" stroke-linecap="round" opacity="0.72"/>
  <path d="M37.5 29.5C43.7 28.6 50.1 31.4 49.6 37.4" stroke="url(#ribbonHighlight)" stroke-width="2.1" stroke-linecap="round" opacity="0.5"/>
  <circle cx="53.2" cy="26.9" r="2.6" fill="#FFE45C"/>
</svg>
