<svg width="64" height="64" viewBox="0 0 64 64" fill="none" xmlns="http://www.w3.org/2000/svg" role="img" aria-labelledby="title desc">
  <title id="title">TechPulse logo</title>
  <desc id="desc">Two connected AI figures forming a friendly pulse network mark.</desc>
  <defs>
    <linearGradient id="techpulseLine" x1="14" y1="50" x2="50" y2="12" gradientUnits="userSpaceOnUse">
      <stop offset="0" stop-color="#0767A8"/>
      <stop offset="0.4" stop-color="#1769FF"/>
      <stop offset="0.72" stop-color="#7C3AED"/>
      <stop offset="1" stop-color="#B14CFF"/>
    </linearGradient>
    <linearGradient id="techpulsePerson" x1="23" y1="27" x2="42" y2="43" gradientUnits="userSpaceOnUse">
      <stop offset="0" stop-color="#0B5E9E"/>
      <stop offset="0.52" stop-color="#1769FF"/>
      <stop offset="1" stop-color="#8B5CF6"/>
    </linearGradient>
  </defs>
  <rect x="5" y="5" width="54" height="54" rx="16" fill="#F8FAFC"/>
  <circle cx="24" cy="19" r="8.6" fill="#F8FAFC" stroke="url(#techpulseLine)" stroke-width="5.4"/>
  <circle cx="40" cy="19" r="8.6" fill="#F8FAFC" stroke="url(#techpulseLine)" stroke-width="5.4"/>
  <path d="M27.7 30.2C22.2 27.4 15.8 31.6 14.3 39.2C12.9 46.4 17.2 51.8 23.1 50.3C28.8 48.8 27 40 31.8 35.7" stroke="url(#techpulseLine)" stroke-width="5.4" stroke-linecap="round" stroke-linejoin="round"/>
  <path d="M36.3 30.2C41.8 27.4 48.2 31.6 49.7 39.2C51.1 46.4 46.8 51.8 40.9 50.3C35.2 48.8 37 40 32.2 35.7" stroke="url(#techpulseLine)" stroke-width="5.4" stroke-linecap="round" stroke-linejoin="round"/>
  <path d="M23.4 39.1C26.4 37.8 29 36.2 31.1 34.4" stroke="url(#techpulseLine)" stroke-width="4.2" stroke-linecap="round"/>
  <path d="M40.6 39.1C37.6 37.8 35 36.2 32.9 34.4" stroke="url(#techpulseLine)" stroke-width="4.2" stroke-linecap="round"/>
  <circle cx="25.1" cy="35" r="3.6" fill="url(#techpulsePerson)"/>
  <path d="M21 47.3C21.8 40.8 25.2 38.2 29.8 40.5C31.5 41.4 32.4 43 32 45" fill="url(#techpulsePerson)"/>
  <circle cx="38.9" cy="35" r="3.6" fill="url(#techpulsePerson)"/>
  <path d="M43 47.3C42.2 40.8 38.8 38.2 34.2 40.5C32.5 41.4 31.6 43 32 45" fill="url(#techpulsePerson)"/>
</svg>
